<?xml version="1.0" standalone="no"?>
<!DOCTYPE svg PUBLIC "-//W3C//DTD SVG 20010904//EN"
 "http://www.w3.org/TR/2001/REC-SVG-20010904/DTD/svg10.dtd">
<svg version="1.0" xmlns="http://www.w3.org/2000/svg"
 width="874.000000pt" height="150.000000pt" viewBox="0 0 874.000000 150.000000"
 preserveAspectRatio="xMidYMid meet">

<g transform="translate(0.000000,150.000000) scale(0.100000,-0.100000)"
fill="#000000" stroke="none">
<path d="M442 1219 c-54 -21 -303 -172 -317 -192 -37 -53 -11 -83 170 -187
163 -95 186 -102 220 -70 25 23 33 71 17 97 -4 6 -49 36 -99 66 l-92 54 83 47
c46 25 91 55 101 66 51 56 -12 147 -83 119z"/>
<path d="M719 1216 c-13 -6 -30 -23 -38 -37 -27 -49 -2 -74 174 -176 88 -51
167 -93 176 -93 9 0 28 9 43 21 29 23 36 73 14 102 -15 18 -292 181 -325 189
-12 3 -32 1 -44 -6z"/>
<path d="M1465 1171 c-44 -11 -82 -38 -106 -78 -17 -27 -21 -45 -17 -92 7 -98
70 -155 170 -154 82 1 145 54 155 131 l6 42 -82 0 c-74 0 -81 -2 -81 -20 0
-18 7 -20 66 -20 63 0 65 -1 59 -22 -14 -48 -50 -71 -114 -76 -99 -7 -151 39
-151 131 1 51 17 82 56 108 35 23 113 25 153 4 16 -8 31 -11 35 -8 29 30 -82
70 -149 54z"/>
<path d="M2540 1010 c0 -144 2 -170 15 -170 13 0 15 26 15 170 0 144 -2 170
-15 170 -13 0 -15 -26 -15 -170z"/>
<path d="M3010 1010 l0 -170 51 0 c154 0 240 88 208 214 -20 82 -93 126 -206
126 l-53 0 0 -170z m189 104 c39 -33 56 -90 41 -143 -6 -23 -23 -51 -41 -65
-26 -22 -40 -26 -95 -26 l-64 0 0 130 0 130 64 0 c55 0 69 -4 95 -26z"/>
<path d="M4070 1010 c0 -144 2 -170 15 -170 13 0 15 26 15 170 0 144 -2 170
-15 170 -13 0 -15 -26 -15 -170z"/>
<path d="M5323 1171 c-33 -9 -62 -37 -69 -67 -10 -38 23 -75 90 -101 71 -27
86 -39 86 -68 0 -57 -92 -76 -142 -28 -19 18 -31 24 -38 17 -17 -17 27 -62 71
-74 101 -28 180 82 108 149 -11 10 -47 28 -79 40 -66 24 -83 50 -54 82 21 23
81 26 110 4 24 -19 34 -19 34 0 0 29 -74 58 -117 46z"/>
<path d="M6120 1109 c0 -39 -3 -69 -7 -67 -68 35 -83 38 -117 24 -46 -19 -66
-52 -66 -106 0 -54 20 -87 66 -106 34 -14 49 -11 117 24 4 2 7 -6 7 -17 0 -12
6 -21 15 -21 13 0 15 26 15 170 0 144 -2 170 -15 170 -12 0 -15 -15 -15 -71z
m-21 -95 c45 -57 11 -134 -60 -134 -52 0 -79 27 -79 80 0 53 27 80 79 80 31 0
44 -6 60 -26z"/>
<path d="M7105 1165 c-117 -41 -151 -181 -66 -266 63 -63 158 -72 222 -20 34
27 15 45 -24 21 -37 -23 -109 -26 -147 -7 -37 18 -70 74 -70 117 0 43 33 99
70 117 35 18 116 16 144 -3 17 -10 26 -12 31 -4 11 18 -13 37 -60 49 -53 13
-51 13 -100 -4z"/>
<path d="M7340 1010 c0 -144 2 -170 15 -170 13 0 15 26 15 170 0 144 -2 170
-15 170 -13 0 -15 -26 -15 -170z"/>
<path d="M7700 1010 c0 -144 2 -170 15 -170 9 0 15 9 15 21 0 11 3 19 8 17 68
-35 82 -38 116 -24 44 18 69 56 69 106 0 50 -25 88 -69 106 -34 14 -48 11
-116 -24 -5 -2 -8 28 -8 67 0 56 -3 71 -15 71 -13 0 -15 -26 -15 -170z m171
11 c18 -14 24 -29 24 -61 0 -53 -30 -80 -85 -80 -30 0 -43 6 -59 26 -45 57
-11 134 59 134 22 0 47 -8 61 -19z"/>
<path d="M5530 1115 c0 -28 -4 -35 -20 -35 -13 0 -20 -7 -20 -20 0 -13 7 -20
19 -20 16 0 19 -10 23 -81 5 -86 16 -106 58 -111 16 -2 25 3 28 15 2 12 -3 17
-17 17 -29 0 -41 29 -41 99 l0 61 30 0 c23 0 30 4 30 20 0 16 -7 20 -30 20
-28 0 -30 3 -30 35 0 24 -5 35 -15 35 -10 0 -15 -11 -15 -35z"/>
<path d="M6750 1115 c0 -28 -4 -35 -20 -35 -13 0 -20 -7 -20 -20 0 -13 7 -20
20 -20 18 0 20 -7 20 -74 0 -41 3 -82 6 -91 8 -20 48 -37 68 -29 21 8 9 32
-17 36 -20 3 -22 10 -25 81 l-3 77 31 0 c23 0 30 4 30 20 0 16 -7 20 -30 20
-28 0 -30 3 -30 35 0 24 -5 35 -15 35 -10 0 -15 -11 -15 -35z"/>
<path d="M1780 1063 c-22 -11 -42 -33 -54 -57 -17 -36 -18 -43 -5 -79 44 -124
219 -98 219 32 0 88 -84 142 -160 104z m107 -45 c52 -49 15 -138 -58 -138 -54
0 -84 28 -84 80 0 32 6 47 24 61 32 26 89 25 118 -3z"/>
<path d="M2050 1063 c-22 -11 -42 -33 -54 -57 -17 -36 -18 -43 -5 -79 44 -124
219 -98 219 32 0 88 -84 142 -160 104z m107 -45 c52 -49 15 -138 -58 -138 -54
0 -84 28 -84 80 0 32 6 47 24 61 32 26 89 25 118 -3z"/>
<path d="M2335 1073 c-55 -13 -94 -89 -75 -147 23 -70 83 -98 145 -66 22 11
41 20 42 20 12 0 -1 -52 -18 -74 -16 -21 -29 -26 -64 -26 -26 0 -47 6 -55 15
-14 17 -40 20 -40 5 0 -16 40 -48 68 -53 43 -8 78 3 109 35 27 29 28 32 31
164 4 118 2 134 -12 134 -9 0 -16 -8 -16 -20 0 -24 -4 -24 -33 -6 -29 18 -57
25 -82 19z m94 -59 c45 -57 11 -134 -59 -134 -55 0 -85 27 -85 80 0 53 30 80
85 80 30 0 43 -6 59 -26z"/>
<path d="M2702 1068 c-86 -24 -96 -166 -15 -209 45 -24 143 -3 143 31 0 13
-27 13 -35 0 -12 -19 -90 -11 -113 10 -43 41 -30 50 68 50 l90 0 0 30 c0 35
-43 86 -80 93 -14 3 -40 1 -58 -5z m92 -44 c28 -28 17 -34 -59 -34 -71 0 -75
1 -65 19 12 24 25 29 72 30 21 1 43 -6 52 -15z"/>
<path d="M3392 1068 c-86 -24 -96 -166 -15 -209 45 -24 143 -3 143 31 0 13
-27 13 -35 0 -12 -19 -90 -11 -113 10 -43 41 -30 50 68 50 l90 0 0 30 c0 35
-43 86 -80 93 -14 3 -40 1 -58 -5z m92 -44 c28 -28 17 -34 -59 -34 -71 0 -75
1 -65 19 12 24 25 29 72 30 21 1 43 -6 52 -15z"/>
<path d="M3581 1028 c12 -29 33 -83 48 -121 17 -44 31 -67 40 -65 8 2 36 56
62 121 37 92 44 118 32 115 -10 -2 -29 -38 -51 -95 -20 -51 -39 -93 -42 -93
-4 0 -23 42 -42 93 -23 59 -41 93 -52 95 -14 3 -14 -2 5 -50z"/>
<path d="M3873 1065 c-42 -18 -66 -56 -66 -105 0 -79 67 -130 142 -110 39 10
69 35 57 47 -3 3 -17 1 -31 -5 -57 -26 -126 -7 -138 38 -5 19 -1 20 89 20 104
0 106 1 79 66 -10 23 -26 39 -49 49 -42 18 -43 18 -83 0z m105 -52 l14 -23
-76 0 c-42 0 -76 3 -76 7 0 3 8 15 17 25 25 27 100 21 121 -9z"/>
<path d="M4245 1072 c-98 -33 -117 -166 -30 -212 64 -34 139 -5 164 66 12 34
11 44 -2 76 -23 54 -83 86 -132 70z m86 -51 c18 -14 24 -29 24 -61 0 -52 -30
-80 -83 -80 -73 0 -110 84 -60 137 27 29 86 31 119 4z"/>
<path d="M4440 910 c0 -144 2 -170 15 -170 12 0 15 14 15 70 0 39 3 70 7 70 3
0 15 -8 25 -17 32 -28 84 -22 121 15 27 28 32 39 32 82 0 43 -5 54 -32 82 -37
37 -89 43 -121 15 -24 -22 -32 -21 -32 3 0 11 -7 20 -15 20 -13 0 -15 -26 -15
-170z m169 104 c45 -57 11 -134 -60 -134 -52 0 -79 27 -79 80 0 53 27 80 79
80 31 0 44 -6 60 -26z"/>
<path d="M4784 1073 c-12 -2 -34 -18 -50 -34 -24 -25 -29 -39 -29 -79 0 -40 5
-54 28 -78 16 -17 42 -33 58 -36 34 -7 87 12 109 39 14 17 13 18 -10 10 -14
-4 -46 -10 -71 -12 -41 -4 -49 -2 -68 22 -11 15 -21 32 -21 36 0 5 43 9 95 9
55 0 95 4 95 10 0 5 -7 27 -16 48 -19 49 -67 75 -120 65z m77 -43 c10 -6 19
-17 19 -25 0 -12 -15 -15 -70 -15 -38 0 -70 4 -70 9 0 35 77 54 121 31z"/>
<path d="M4970 960 c0 -100 3 -120 15 -120 12 0 15 15 15 71 0 39 5 80 11 92
9 16 9 22 0 25 -6 2 -11 15 -11 28 0 15 -6 24 -15 24 -12 0 -15 -20 -15 -120z"/>
<path d="M5051 1067 c-39 -19 -39 -38 1 -31 39 8 53 18 44 33 -9 14 -15 14
-45 -2z"/>
<path d="M5680 986 c0 -75 4 -98 18 -116 22 -27 83 -31 110 -7 24 22 32 21 32
-3 0 -11 7 -20 15 -20 13 0 15 20 15 120 0 100 -2 120 -15 120 -12 0 -15 -15
-15 -78 0 -97 -14 -122 -69 -122 -54 0 -61 12 -61 112 0 72 -3 88 -15 88 -12
0 -15 -17 -15 -94z"/>
<path d="M6284 1073 c-12 -2 -34 -18 -50 -34 -24 -25 -29 -39 -29 -79 0 -40 5
-54 28 -78 16 -17 42 -33 58 -36 34 -7 87 12 109 39 14 17 13 18 -10 10 -14
-4 -46 -10 -71 -12 -41 -4 -49 -2 -68 22 -11 15 -21 32 -21 36 0 5 43 9 95 9
55 0 95 4 95 10 0 5 -7 27 -16 48 -19 49 -67 75 -120 65z m77 -43 c10 -6 19
-17 19 -25 0 -12 -15 -15 -70 -15 -38 0 -70 4 -70 9 0 35 77 54 121 31z"/>
<path d="M6470 960 c0 -100 3 -120 15 -120 12 0 15 15 15 71 0 99 18 129 77
129 48 0 63 -29 63 -122 0 -63 3 -78 15 -78 12 0 15 16 15 83 0 92 -13 126
-52 145 -26 12 -45 8 -110 -26 -5 -2 -8 6 -8 17 0 12 -6 21 -15 21 -12 0 -15
-20 -15 -120z"/>
<path d="M7440 992 c0 -95 12 -126 56 -142 25 -10 84 5 84 21 0 5 7 9 15 9 8
0 15 -9 15 -20 0 -11 5 -20 10 -20 6 0 10 47 10 120 0 100 -2 120 -15 120 -12
0 -15 -16 -15 -83 0 -95 -13 -117 -68 -117 -51 0 -62 20 -62 116 0 68 -3 84
-15 84 -12 0 -15 -16 -15 -88z"/>
<path d="M8013 1065 c-40 -17 -54 -58 -29 -83 9 -10 40 -24 69 -32 44 -14 52
-19 52 -40 0 -22 -5 -25 -41 -28 -28 -2 -47 2 -57 12 -17 18 -37 21 -37 7 0
-5 7 -17 17 -26 53 -54 153 -31 153 35 0 35 -28 59 -87 74 -37 9 -48 17 -48
32 0 17 7 19 63 18 62 -1 73 4 50 24 -23 18 -72 22 -105 7z"/>
<path d="M1410 400 c0 -73 4 -120 10 -120 6 0 10 47 10 120 0 73 -4 120 -10
120 -6 0 -10 -47 -10 -120z"/>
<path d="M1490 400 c0 -73 4 -120 10 -120 6 0 10 47 10 120 0 73 -4 120 -10
120 -6 0 -10 -47 -10 -120z"/>
<path d="M1570 400 c0 -73 4 -120 10 -120 6 0 10 47 10 120 0 73 -4 120 -10
120 -6 0 -10 -47 -10 -120z"/>
<path d="M1640 505 c0 -10 10 -15 30 -15 l30 0 0 -105 c0 -63 4 -105 10 -105
6 0 10 42 10 105 l0 105 30 0 c20 0 30 5 30 15 0 12 -14 15 -70 15 -56 0 -70
-3 -70 -15z"/>
<path d="M1853 400 c23 -66 46 -119 51 -117 9 3 84 202 85 226 2 30 -15 -4
-45 -92 -16 -50 -35 -92 -40 -94 -5 -2 -24 42 -42 97 -19 55 -37 100 -42 100
-5 0 10 -54 33 -120z"/>
<path d="M2110 400 c0 -73 4 -120 10 -120 6 0 10 47 10 120 0 73 -4 120 -10
120 -6 0 -10 -47 -10 -120z"/>
<path d="M3844 400 c0 -69 1 -97 3 -62 2 34 2 90 0 125 -2 34 -3 6 -3 -63z"/>
<path d="M4051 507 c-47 -16 -74 -56 -74 -107 0 -78 70 -130 147 -109 36 10
53 25 42 36 -4 4 -12 1 -18 -5 -20 -20 -101 -15 -126 8 -63 59 -25 160 61 160
21 0 47 -5 58 -10 21 -12 26 2 7 17 -23 18 -62 22 -97 10z"/>
<path d="M5340 400 l0 -123 57 6 c45 5 63 12 87 36 25 26 30 38 30 81 0 43 -5
55 -30 81 -24 24 -42 31 -87 36 l-57 6 0 -123z m135 65 c19 -18 25 -35 25 -65
0 -58 -33 -90 -95 -90 l-45 0 0 90 0 90 45 0 c35 0 52 -6 70 -25z"/>
<path d="M3235 500 c-4 -6 -3 -16 3 -22 6 -6 12 -6 17 2 4 6 3 16 -3 22 -6 6
-12 6 -17 -2z"/>
<path d="M5560 490 c0 -5 7 -10 15 -10 8 0 15 5 15 10 0 6 -7 10 -15 10 -8 0
-15 -4 -15 -10z"/>
<path d="M2381 468 c0 -18 -7 -28 -16 -28 -8 0 -15 -7 -15 -15 0 -8 7 -15 15
-15 12 0 15 -13 15 -55 0 -43 4 -56 19 -65 26 -13 31 -13 31 4 0 7 -9 16 -20
19 -16 4 -20 14 -20 51 0 39 3 46 20 46 11 0 20 7 20 15 0 8 -9 15 -19 15 -14
0 -21 8 -24 28 l-4 27 -2 -27z"/>
<path d="M3141 468 c0 -18 -7 -28 -16 -28 -8 0 -15 -7 -15 -15 0 -8 7 -15 15
-15 12 0 15 -13 15 -55 0 -43 4 -56 19 -65 26 -13 31 -13 31 4 0 7 -9 16 -20
19 -16 4 -20 14 -20 51 0 39 3 46 20 46 11 0 20 7 20 15 0 8 -9 15 -19 15 -14
0 -21 8 -24 28 l-4 27 -2 -27z"/>
<path d="M2193 360 c0 -58 2 -68 4 -30 5 66 15 80 59 80 37 0 41 -7 47 -90 3
-33 4 -27 5 22 2 62 0 69 -23 84 -23 15 -27 15 -50 0 -30 -20 -32 -20 -38 2
-3 9 -4 -21 -4 -68z"/>
<path d="M2520 433 c-52 -19 -69 -93 -30 -128 25 -22 75 -24 97 -3 14 14 11
15 -31 11 -44 -5 -76 7 -76 28 0 5 29 9 65 9 39 0 65 4 65 10 0 18 -30 70 -39
70 -5 0 -15 2 -23 4 -7 3 -20 2 -28 -1z m54 -29 c33 -13 14 -24 -40 -24 -49 0
-55 2 -44 15 13 15 56 20 84 9z"/>
<path d="M2650 360 c0 -47 4 -80 10 -80 6 0 10 24 10 53 0 55 12 77 42 77 10
0 18 7 18 16 0 15 -2 15 -25 0 -30 -20 -35 -20 -35 -1 0 8 -4 15 -10 15 -6 0
-10 -33 -10 -80z"/>
<path d="M2770 360 c0 -47 4 -80 10 -80 6 0 10 24 10 53 0 59 12 77 51 77 37
0 47 -16 52 -80 3 -54 3 -54 5 12 2 62 0 69 -23 84 -23 15 -27 15 -50 0 -30
-20 -35 -20 -35 -1 0 8 -4 15 -10 15 -6 0 -10 -33 -10 -80z"/>
<path d="M2970 427 c-24 -11 -22 -12 22 -15 34 -2 51 -8 58 -22 9 -17 6 -18
-35 -17 -57 2 -84 -20 -68 -56 14 -31 44 -39 79 -21 33 17 32 18 37 -3 3 -10
5 9 6 43 1 34 -4 67 -11 77 -18 22 -58 29 -88 14z m78 -94 c-4 -20 -64 -31
-80 -15 -18 18 2 32 43 32 33 0 40 -3 37 -17z"/>
<path d="M3243 360 c0 -47 2 -66 4 -42 2 23 2 61 0 85 -2 23 -4 4 -4 -43z"/>
<path d="M3343 425 c-35 -15 -49 -48 -39 -91 9 -33 64 -58 100 -44 46 17 61
80 29 118 -25 28 -52 33 -90 17z m83 -40 c15 -23 15 -27 0 -50 -12 -18 -25
-25 -49 -25 -40 0 -57 15 -57 50 0 35 17 50 57 50 24 0 37 -7 49 -25z"/>
<path d="M3491 363 c-1 -50 3 -83 9 -83 6 0 10 24 10 54 0 61 14 79 57 74 27
-3 28 -5 31 -65 4 -79 22 -83 22 -5 0 83 -31 114 -85 86 -34 -17 -33 -18 -38
4 -3 9 -5 -20 -6 -65z"/>
<path d="M3690 427 c-23 -10 -22 -11 25 -16 36 -4 51 -11 53 -23 3 -14 -4 -17
-36 -15 -22 0 -47 -5 -56 -12 -45 -38 13 -94 68 -66 22 12 26 12 26 -1 0 -8 5
-14 10 -14 6 0 10 26 10 58 0 44 -5 63 -17 74 -26 23 -55 28 -83 15z m80 -91
c0 -17 -22 -26 -61 -26 -27 0 -39 17 -22 33 13 14 83 8 83 -7z"/>
<path d="M4240 427 l-25 -11 30 -3 c56 -6 75 -13 75 -28 0 -10 -11 -13 -39
-12 -67 2 -96 -46 -46 -79 23 -15 27 -15 50 0 30 20 35 20 35 1 0 -8 5 -15 11
-15 16 0 5 119 -13 135 -20 20 -51 25 -78 12z m80 -85 c0 -17 -26 -32 -56 -32
-34 0 -50 12 -39 30 7 12 95 14 95 2z"/>
<path d="M4380 360 c0 -47 4 -80 10 -80 6 0 10 24 10 54 0 61 14 79 57 74 27
-3 28 -5 31 -65 4 -77 22 -84 22 -9 0 61 14 79 57 74 27 -3 28 -5 31 -65 3
-73 22 -86 21 -15 -2 94 -29 125 -83 96 -24 -12 -31 -12 -52 2 -22 15 -26 15
-49 0 -30 -20 -35 -20 -35 -1 0 8 -4 15 -10 15 -6 0 -10 -33 -10 -80z"/>
<path d="M4660 325 c0 -70 4 -115 10 -115 6 0 10 23 10 50 0 28 2 50 5 50 3 0
17 -7 30 -16 50 -33 111 31 89 93 -5 16 -22 34 -37 41 -24 12 -32 11 -52 -2
-30 -20 -35 -20 -35 -1 0 8 -4 15 -10 15 -6 0 -10 -45 -10 -115z m122 68 c36
-32 8 -83 -47 -83 -38 0 -55 16 -55 50 0 14 5 31 12 38 17 17 68 15 90 -5z"/>
<path d="M4850 382 c0 -83 31 -114 85 -86 34 17 33 18 38 -3 3 -10 5 20 4 67
0 77 -1 80 -6 28 -7 -68 -17 -81 -62 -76 l-34 3 -3 63 c-4 78 -22 82 -22 4z"/>
<path d="M5049 421 c-31 -26 -17 -52 37 -67 56 -16 52 -39 -8 -38 -49 0 -54
-11 -11 -27 48 -18 97 39 61 69 -7 6 -28 14 -46 19 -47 12 -40 27 15 33 48 6
48 6 20 18 -37 16 -41 15 -68 -7z"/>
<path d="M5573 360 c0 -47 2 -66 4 -42 2 23 2 61 0 85 -2 23 -4 4 -4 -43z"/>
<path d="M5630 393 c0 -69 9 -93 38 -104 18 -7 31 -5 48 6 29 19 32 19 37 -2
3 -10 5 20 4 67 0 77 -1 80 -6 28 -7 -68 -17 -81 -62 -76 l-34 3 -3 63 c-3 72
-22 85 -22 15z"/>
<path d="M5185 310 c-7 -12 2 -30 16 -30 12 0 12 27 0 35 -5 3 -12 1 -16 -5z"/>
</g>
</svg>
